# xmcd
#
# Track frame offsets: 
#        150
#        24540
#        64734
#        81846
#        100029
#        120155
#        135613
#        150017
#        180124
#        212306
#
# Disc length: 3099 seconds
#
# Revision: 0
# Processed by: cddbd v1.5.2PL0 Copyright (c) Steve Scherf et al.
# Submitted via: ExactAudioCopy v0.95b4
#
DISCID=640c190a
DTITLE=Jeff Healey - Mess Of Blues
DYEAR=2008
DGENRE=Blues 
TTITLE0=I'm Torn Down
TTITLE1=How Blue Can You Get
TTITLE2=Sugar Sweet
TTITLE3=Jambalaya
TTITLE4=The Weight
TTITLE5=Mess O' Blues
TTITLE6=It's Only Money
TTITLE7=Like A Hurricane
TTITLE8=Sittin' On Top Of The World
TTITLE9=Shake, Rattle And Roll
EXTD=
EXTT0=
EXTT1=
EXTT2=
EXTT3=
EXTT4=
EXTT5=
EXTT6=
EXTT7=
EXTT8=
EXTT9=
PLAYORDER=
